<svg width="35" height="35" viewBox="0 0 35 35" fill="none" xmlns="http://www.w3.org/2000/svg">
<path d="M15.3124 11.6665H19.6874M9.85825 32.0832H25.1416C29.1666 32.0832 30.7708 29.6186 30.9603 26.6144L31.7187 14.5686C31.7659 13.8217 31.6595 13.073 31.406 12.3689C31.1524 11.6647 30.7572 11.02 30.2446 10.4747C29.7321 9.92933 29.1131 9.49489 28.4261 9.19822C27.739 8.90155 26.9983 8.74894 26.2499 8.74984C25.3603 8.74984 24.5437 8.23942 24.1353 7.45192L23.0853 5.33734C22.4145 4.01025 20.6645 2.9165 19.177 2.9165H15.8374C14.3353 2.9165 12.5853 4.01025 11.9145 5.33734L10.8645 7.45192C10.4562 8.23942 9.6395 8.74984 8.74992 8.74984C5.58534 8.74984 3.077 11.4186 3.28117 14.5686L4.0395 26.6144C4.2145 29.6186 5.83325 32.0832 9.85825 32.0832Z" stroke="black" stroke-width="3" stroke-linecap="round" stroke-linejoin="round"/>
<path d="M17.5013 26.2502C20.1117 26.2502 22.2409 24.121 22.2409 21.5106C22.2409 18.9002 20.1117 16.771 17.5013 16.771C14.8909 16.771 12.7617 18.9002 12.7617 21.5106C12.7617 24.121 14.8909 26.2502 17.5013 26.2502Z" stroke="black" stroke-width="3" stroke-linecap="round" stroke-linejoin="round"/>
</svg>
