<svg width="64" height="53" viewBox="0 0 64 53" fill="none" xmlns="http://www.w3.org/2000/svg">
<circle cx="33.5" cy="26.5" r="13" stroke="black" stroke-width="3"/>
<path d="M32.64 31.61V29.776L32.962 30.084C32.2807 30.0653 31.6367 29.9627 31.03 29.776C30.4327 29.58 29.9147 29.3093 29.476 28.964L30.022 27.55C30.4607 27.8767 30.9413 28.1287 31.464 28.306C31.9867 28.4833 32.5607 28.572 33.186 28.572C33.886 28.572 34.3947 28.4507 34.712 28.208C35.0387 27.956 35.202 27.6433 35.202 27.27C35.202 26.962 35.0853 26.7147 34.852 26.528C34.628 26.3413 34.2407 26.1873 33.69 26.066L32.206 25.744C31.3473 25.5573 30.708 25.2447 30.288 24.806C29.8773 24.358 29.672 23.7747 29.672 23.056C29.672 22.5053 29.8073 22.0153 30.078 21.586C30.3487 21.1473 30.7267 20.7973 31.212 20.536C31.6973 20.2747 32.2667 20.1207 32.92 20.074L32.64 20.284V18.52H34.04V20.284L33.746 20.06C34.278 20.088 34.8007 20.1953 35.314 20.382C35.8367 20.5687 36.2707 20.8393 36.616 21.194L36.084 22.538C35.7293 22.2113 35.3233 21.9687 34.866 21.81C34.4087 21.642 33.9093 21.558 33.368 21.558C32.752 21.558 32.2667 21.6933 31.912 21.964C31.5573 22.2253 31.38 22.5707 31.38 23C31.38 23.3173 31.4873 23.5787 31.702 23.784C31.926 23.98 32.2947 24.134 32.808 24.246L34.292 24.568C35.188 24.7547 35.8507 25.0627 36.28 25.492C36.7187 25.912 36.938 26.4673 36.938 27.158C36.938 27.6993 36.8027 28.18 36.532 28.6C36.2613 29.0107 35.888 29.342 35.412 29.594C34.9453 29.8367 34.3993 29.9907 33.774 30.056L34.04 29.762V31.61H32.64Z" fill="black"/>
<path d="M13.0607 0.939339C12.4749 0.353552 11.5251 0.353552 10.9393 0.939339L1.3934 10.4853C0.807611 11.0711 0.807611 12.0208 1.3934 12.6066C1.97918 13.1924 2.92893 13.1924 3.51472 12.6066L12 4.12132L20.4853 12.6066C21.0711 13.1924 22.0208 13.1924 22.6066 12.6066C23.1924 12.0208 23.1924 11.0711 22.6066 10.4853L13.0607 0.939339ZM13.5 32L13.5 2L10.5 2L10.5 32L13.5 32Z" fill="black"/>
<path d="M50.9393 52.0607C51.5251 52.6464 52.4749 52.6464 53.0607 52.0607L62.6066 42.5147C63.1924 41.9289 63.1924 40.9792 62.6066 40.3934C62.0208 39.8076 61.0711 39.8076 60.4853 40.3934L52 48.8787L43.5147 40.3934C42.9289 39.8076 41.9792 39.8076 41.3934 40.3934C40.8076 40.9792 40.8076 41.9289 41.3934 42.5147L50.9393 52.0607ZM50.5 21L50.5 51L53.5 51L53.5 21L50.5 21Z" fill="black"/>
</svg>
